<?xml version="1.0" standalone="no"?>
<!DOCTYPE svg PUBLIC "-//W3C//DTD SVG 20010904//EN"
 "http://www.w3.org/TR/2001/REC-SVG-20010904/DTD/svg10.dtd">
<svg version="1.0" xmlns="http://www.w3.org/2000/svg"
 width="573.000000pt" height="636.000000pt" viewBox="0 0 573.000000 636.000000"
 preserveAspectRatio="xMidYMid meet">
<metadata>
Created by potrace 1.10, written by Peter Selinger 2001-2011
</metadata>
<g transform="translate(0.000000,636.000000) scale(0.100000,-0.100000)"
fill="#000000" stroke="none">
<path d="M330 6317 c0 -31 30 -97 54 -116 9 -7 21 -32 27 -55 5 -22 71 -192
146 -376 140 -345 218 -559 207 -569 -4 -3 -9 0 -11 7 -19 51 -233 296 -329
374 -129 105 -214 147 -343 167 l-51 8 0 -58 c0 -52 2 -59 20 -59 36 0 128
-41 202 -89 55 -36 93 -72 149 -142 93 -116 529 -696 529 -704 0 -3 -30 20
-67 51 -100 86 -247 178 -396 249 -74 36 -140 65 -147 65 -7 0 15 -19 50 -42
85 -58 566 -512 525 -497 -5 2 -48 23 -95 46 -155 76 -317 108 -395 78 -59
-22 -75 -53 -75 -147 0 -190 156 -614 291 -791 28 -37 53 -66 56 -63 3 2 -7
35 -22 73 -91 226 -205 611 -205 693 0 45 2 49 36 65 72 34 169 2 331 -111
195 -136 322 -259 377 -364 60 -115 89 -200 82 -240 -5 -31 -2 -41 24 -65 32
-31 29 -24 136 -340 74 -216 86 -274 70 -327 -7 -24 -5 -27 24 -33 17 -4 37
-16 44 -28 18 -27 101 -254 151 -407 35 -108 36 -118 25 -163 -7 -27 -11 -49
-9 -50 62 -40 79 -61 99 -122 l22 -66 -21 -57 c-35 -93 -51 -170 -57 -282 -8
-120 -3 -133 71 -230 49 -64 111 -123 177 -168 l47 -32 374 0 c358 0 378 1
424 21 148 64 438 142 708 190 103 18 131 20 195 11 41 -6 97 -21 124 -33 44
-19 55 -20 99 -10 64 15 131 14 192 -2 28 -7 59 -10 70 -7 25 6 146 135 171
181 16 28 19 56 19 154 0 112 -3 127 -37 225 -23 66 -52 187 -77 325 -69 374
-89 435 -173 510 -57 51 -94 64 -458 165 -124 34 -233 70 -244 79 -10 9 -25
29 -33 44 -14 27 -12 33 31 117 26 49 61 128 80 176 23 60 40 90 54 95 40 15
56 65 62 195 l5 121 56 64 c84 96 92 112 87 164 -3 26 -16 59 -30 77 -37 49
-55 88 -63 138 -4 25 -23 76 -43 114 -33 63 -41 71 -92 94 -30 14 -71 38 -90
53 -54 43 -118 52 -339 47 -213 -5 -214 -5 -291 -68 -43 -36 -50 -38 -136 -44
-106 -7 -124 -12 -124 -35 0 -10 -14 -39 -32 -66 -27 -41 -33 -60 -38 -130 -5
-78 -7 -83 -57 -151 l-51 -69 -4 -128 -3 -128 87 -82 c67 -63 92 -96 113 -142
31 -71 49 -92 91 -110 23 -9 35 -24 44 -52 19 -58 47 -109 80 -147 24 -27 30
-43 30 -79 0 -40 -4 -49 -36 -75 -45 -38 -194 -103 -434 -192 -257 -94 -230
-90 -230 -35 0 35 -6 54 -24 76 -27 32 -35 64 -67 271 -20 132 -21 155 -10
213 13 62 12 66 -7 83 -14 11 -26 43 -37 95 -22 111 -38 284 -31 336 5 37 2
49 -15 67 l-20 21 20 124 c11 68 30 157 41 198 58 206 228 461 308 461 47 0
98 -66 126 -162 9 -32 21 -58 26 -58 19 0 -12 224 -37 278 -74 157 -259 78
-378 -162 -26 -53 -49 -95 -52 -93 -9 9 163 478 193 524 44 69 -18 23 -80 -60
-64 -85 -114 -175 -152 -272 -29 -76 -51 -109 -40 -61 4 16 27 129 52 250 51
257 78 354 101 363 46 18 204 -62 330 -165 35 -30 66 -52 68 -50 8 8 -174 194
-250 256 -90 73 -136 96 -173 87 -46 -11 -92 -56 -121 -119 -29 -62 -80 -258
-82 -312 0 -16 -4 -38 -8 -49 -6 -15 -10 -7 -15 35 -32 241 -62 441 -91 597
-78 419 -45 493 70 158 4 -11 9 -15 12 -9 12 34 -72 281 -118 345 -34 49 -54
53 -89 22 -28 -25 -32 -35 -37 -104 -9 -119 14 -366 72 -764 6 -39 5 -39 -23
20 -28 58 -68 97 -165 159 -28 17 -29 17 -53 -5 -30 -28 -60 -109 -74 -196 -6
-38 -24 -102 -40 -143 -40 -101 -57 -172 -71 -293 -6 -56 -14 -109 -17 -117
-3 -8 -16 68 -29 170 -36 276 -36 522 0 733 15 87 36 199 47 250 23 104 23
107 11 107 -13 0 -86 -156 -115 -246 -46 -142 -67 -267 -73 -447 -3 -93 -9
-165 -13 -160 -10 11 -65 256 -81 358 -7 51 -9 124 -5 200 7 130 41 380 56
421 12 31 12 34 1 34 -9 0 -89 -183 -120 -273 -32 -92 -45 -189 -45 -334 -1
-77 -4 -139 -8 -136 -5 2 -8 11 -8 19 0 8 -74 161 -164 341 -90 181 -172 346
-182 368 -39 87 -62 113 -105 117 -37 3 -39 2 -39 -25z m148 -194 c56 -109
135 -263 177 -343 150 -284 208 -435 264 -686 18 -76 34 -147 38 -158 8 -28
-14 -11 -33 25 -8 17 -37 110 -64 207 -64 233 -107 365 -132 408 -31 53 -32
34 -2 -37 54 -128 161 -485 150 -497 -7 -7 -21 31 -42 114 -38 153 -351 929
-440 1092 -37 68 -38 72 -25 72 5 0 54 -89 109 -197z m1200 74 c9 -10 6 -24
-9 -55 -20 -40 -20 -48 -10 -159 14 -145 59 -459 111 -781 36 -219 48 -323 36
-311 -2 2 -21 100 -42 218 -21 117 -40 209 -42 203 -2 -6 15 -114 37 -241 42
-235 48 -290 32 -261 -5 8 -12 35 -16 60 -4 25 -25 139 -46 253 -83 447 -103
602 -103 827 -1 139 3 214 11 233 14 30 25 34 41 14z m-759 -322 c-23 -245 -3
-424 76 -660 41 -124 68 -252 48 -230 -5 6 -22 52 -36 103 -32 110 -67 205
-73 199 -5 -5 52 -205 89 -313 25 -73 46 -213 28 -183 -21 33 -122 386 -147
516 -25 128 -26 150 -21 313 6 154 19 287 33 329 9 29 11 4 3 -74z m213 -190
c-11 -70 -16 -179 -16 -365 -1 -274 3 -317 54 -580 10 -52 26 -171 34 -263 9
-93 19 -181 22 -195 l5 -27 -20 24 c-15 16 -21 38 -22 70 -1 58 -7 106 -19
151 -5 19 -10 62 -11 95 -1 33 -5 71 -9 85 -7 23 -4 -99 7 -285 4 -62 3 -68
-10 -55 -10 10 -17 46 -21 105 -3 50 -13 133 -22 185 -24 145 -26 864 -1 1006
16 97 33 161 41 153 2 -2 -4 -49 -12 -104z m-890 -27 c48 -20 82 -48 59 -48
-25 0 -7 -19 62 -67 83 -58 223 -200 319 -324 107 -138 322 -477 367 -578 23
-52 39 -96 37 -98 -9 -9 -80 91 -112 158 -19 40 -51 95 -72 123 -355 492 -469
631 -625 762 -23 19 -157 84 -174 84 -15 0 -26 17 -18 29 6 11 83 -9 157 -41z
m1877 -123 c50 -23 191 -121 191 -132 0 -2 -19 8 -42 22 -78 48 -149 76 -187
73 -30 -3 -39 -10 -58 -43 -30 -52 -48 -115 -73 -248 -17 -97 -66 -446 -87
-632 l-8 -70 -6 80 -5 80 -2 -100 c-2 -113 -11 -175 -23 -175 -44 0 61 833
132 1047 20 61 72 123 102 123 7 0 36 -12 66 -25z m-610 -41 c32 -28 56 -64
98 -153 70 -149 103 -234 102 -269 0 -32 5 -42 -65 126 -25 62 -48 112 -50
110 -2 -2 13 -53 31 -112 38 -120 39 -124 25 -110 -5 5 -28 63 -50 129 -43
124 -85 208 -119 239 -18 16 -25 17 -50 6 -16 -6 -41 -29 -55 -51 -15 -21 -28
-39 -31 -39 -8 0 35 102 56 132 27 38 56 36 108 -8z m-42 -112 c-29 -44 -69
-131 -102 -222 -28 -78 -33 -85 -59 -88 -27 -3 -28 -2 -21 25 21 84 103 271
134 306 31 34 36 37 50 22 14 -14 14 -18 -2 -43z m43 -23 c0 -6 23 -71 50
-144 35 -91 65 -198 94 -337 24 -112 47 -215 51 -230 11 -43 -2 -33 -29 21
-64 125 -205 311 -280 369 -35 27 -35 28 45 209 49 110 69 144 69 112z m550
-351 c-22 -62 -53 -165 -70 -228 -35 -131 -111 -353 -118 -346 -9 10 21 171
50 271 41 137 156 415 172 415 3 0 -13 -51 -34 -112z m-348 -10 c-13 -13 -39
1 -46 24 -9 36 6 43 31 13 15 -16 21 -31 15 -37z m-327 11 c68 -63 252 -347
355 -548 20 -41 80 -199 80 -213 0 -23 -19 -3 -30 33 -22 67 -23 27 -1 -46 26
-87 4 -82 -27 6 -71 200 -211 500 -286 613 -61 91 -131 162 -170 172 -36 9
-33 24 4 24 22 0 43 -12 75 -41z m981 -4 c39 -30 55 -56 64 -107 9 -48 1 -48
-29 2 -25 40 -62 60 -108 60 -48 0 -171 -148 -246 -295 -48 -95 -52 -105 -107
-310 -58 -214 -67 -242 -80 -229 -12 12 20 198 51 300 43 142 221 485 281 540
77 72 119 81 174 39z m-1063 -35 c-17 -277 -16 -308 22 -565 20 -137 40 -265
45 -284 5 -19 7 -37 5 -40 -12 -11 -34 38 -40 89 -22 178 -55 384 -64 393 -16
16 -14 -2 14 -212 14 -101 23 -186 21 -188 -14 -14 -38 65 -55 179 -17 116
-18 156 -11 318 5 102 12 222 16 268 6 77 8 83 28 80 17 -2 21 -9 19 -38z
m435 -117 l51 -128 -8 -102 c-12 -165 -16 -158 -56 92 -14 88 -32 184 -39 213
-24 90 -1 57 52 -75z m-287 -4 c27 -37 63 -98 81 -135 61 -136 205 -474 201
-474 -2 0 -17 7 -34 15 -37 20 -61 8 -80 -37 -18 -41 -20 -321 -3 -338 8 -8
13 13 17 78 5 86 27 162 45 162 25 0 60 -53 65 -98 3 -26 16 -81 28 -122 20
-65 23 -97 24 -241 0 -113 4 -170 12 -180 22 -27 31 -66 58 -245 16 -108 25
-211 24 -259 -2 -58 1 -88 13 -110 19 -37 33 -125 20 -125 -5 0 -12 10 -15 23
-3 12 -32 88 -65 169 -69 166 -79 206 -62 238 10 19 9 24 -9 37 -64 44 -220
460 -239 636 -6 57 -9 62 -33 65 -16 2 -31 12 -37 28 -20 43 -51 177 -88 380
-39 214 -53 429 -39 579 l7 77 30 -29 c16 -15 52 -58 79 -94z m-755 -10 c83
-61 203 -165 302 -261 68 -67 92 -97 92 -116 0 -25 0 -25 -32 10 -46 50 -197
188 -173 158 12 -14 56 -64 98 -111 42 -48 77 -92 77 -98 0 -6 7 -11 15 -11 8
0 15 -7 15 -15 0 -26 -15 -16 -55 37 -22 29 -133 147 -247 263 -114 115 -208
211 -208 213 0 7 70 -35 116 -69z m2340 -191 c27 -11 95 -53 152 -92 l103 -71
-38 -7 c-87 -16 -148 -9 -208 22 -32 17 -60 29 -62 26 -2 -2 10 -20 28 -40 17
-20 29 -39 26 -43 -4 -3 -37 2 -74 11 -175 44 -185 115 -28 199 39 21 44 21
101 -5z m132 10 c-3 -7 -13 -13 -23 -13 -10 0 -20 6 -22 13 -3 7 5 12 22 12
17 0 25 -5 23 -12z m222 -3 c0 -8 7 -15 16 -15 9 0 32 -9 51 -21 110 -68 112
-220 3 -283 -29 -17 -60 -22 -186 -27 -113 -5 -159 -11 -184 -24 -25 -13 -46
-16 -82 -11 -33 5 -68 1 -110 -10 -47 -14 -64 -15 -79 -6 -25 16 -42 15 -83
-4 -31 -16 -39 -16 -88 -2 -31 9 -47 18 -38 21 46 17 447 133 515 148 92 21
176 24 260 8 58 -11 60 -10 82 16 13 14 23 38 23 52 l0 26 -25 -27 c-27 -29
-41 -31 -98 -15 -27 7 -44 20 -58 44 -11 19 -43 48 -70 66 -47 30 -49 33 -33
50 19 21 39 26 122 28 49 1 62 -2 62 -14z m-2647 -118 c172 -84 308 -180 414
-290 98 -103 190 -232 221 -312 11 -27 23 -58 27 -67 5 -13 3 -18 -8 -18 -8 0
-38 41 -67 90 -118 206 -238 338 -376 414 -49 28 -122 72 -163 99 -126 85
-233 118 -311 97 -33 -9 -44 -18 -56 -45 -18 -45 -18 -112 2 -187 8 -33 13
-62 10 -65 -17 -17 -61 171 -53 228 12 88 62 122 174 116 63 -3 86 -11 186
-60z m2893 -13 c21 -56 15 -165 -11 -194 -35 -39 -42 -25 -41 78 1 53 -3 119
-8 146 l-9 48 26 -17 c14 -9 34 -37 43 -61z m-864 -24 c26 -10 77 -35 114 -55
l67 -38 -78 -28 c-91 -33 -121 -35 -169 -13 -33 16 -35 16 -61 -5 -32 -25 -58
-27 -75 -6 -16 20 -5 47 30 73 25 19 30 30 30 63 l0 41 47 -7 c27 -4 69 -15
95 -25z m798 -218 c0 -25 -32 -26 -52 -2 -18 22 -18 24 -1 42 17 19 17 19 35
-4 10 -13 18 -29 18 -36z m-70 -11 c0 -18 -44 -41 -79 -41 -41 0 -35 9 22 32
50 20 57 21 57 9z m-159 -48 c9 -8 30 -40 47 -71 17 -31 44 -70 61 -86 17 -17
31 -36 31 -43 0 -18 -4 -17 -46 12 -52 36 -82 36 -159 3 -27 -12 -51 -23 -53
-24 -2 -1 -5 -14 -8 -30 -3 -16 -11 -49 -18 -74 -8 -29 -11 -66 -6 -103 6 -58
19 -77 52 -77 19 0 38 -28 31 -47 -3 -7 -14 -13 -26 -13 -11 0 -35 -5 -53 -12
-34 -12 -94 0 -131 28 -16 11 -16 14 0 38 16 24 16 26 1 26 -19 0 -110 -69
-119 -90 -4 -8 -9 -45 -12 -82 -7 -75 7 -93 48 -65 18 13 26 14 61 1 24 -8 84
-15 147 -15 l106 -2 -67 -11 c-37 -6 -73 -17 -80 -24 -23 -23 18 -42 89 -42
58 0 64 -2 75 -25 28 -62 -54 -134 -154 -137 -112 -4 -281 113 -365 252 -39
65 -73 204 -79 329 -6 114 -6 117 25 184 33 70 86 121 140 133 14 3 100 30
190 59 l163 53 47 -15 c25 -9 53 -22 62 -30z m404 22 c17 -16 25 -35 25 -57 0
-65 -24 -75 -168 -73 -96 2 -117 5 -140 22 -39 29 -33 44 23 59 28 7 79 26
115 43 80 37 113 39 145 6z m-1149 -44 c31 -28 49 -33 143 -43 38 -5 37 -27
-3 -43 -48 -20 -112 -5 -162 39 -29 25 -35 36 -30 54 9 28 12 28 52 -7z m300
17 c21 6 39 10 41 8 3 -3 -131 -56 -142 -56 -11 0 -45 31 -45 41 0 13 33 15
72 5 25 -7 48 -6 74 2z m-1146 -48 c22 -22 40 -45 40 -51 0 -6 13 -31 29 -54
16 -24 27 -46 23 -49 -14 -15 -32 -2 -51 37 -18 37 -84 117 -97 117 -3 0 -16
-7 -29 -16 -28 -18 -31 -14 -14 19 26 49 48 48 99 -3z m840 -89 c0 -13 -70
-41 -100 -41 -28 0 -30 2 -30 41 0 39 14 78 32 90 9 5 98 -77 98 -90z m-660
20 c5 -11 10 -29 10 -40 0 -17 -6 -21 -35 -21 -24 0 -37 6 -45 19 -15 29 -12
41 9 41 11 0 23 5 26 10 10 16 23 12 35 -9z m1800 -30 c0 -18 -44 -41 -77 -41
-46 0 -41 15 10 33 52 18 67 20 67 8z m-130 -18 c0 -9 9 -26 20 -38 20 -21 20
-24 5 -81 -8 -32 -22 -65 -31 -74 -14 -13 -17 -13 -30 4 -8 11 -14 36 -14 55
0 20 -8 43 -19 55 -10 12 -21 38 -24 59 l-6 37 50 0 c39 0 49 -3 49 -17z
m-890 -8 c0 -3 -18 -21 -40 -41 -31 -28 -40 -44 -40 -68 0 -53 -19 -70 -74
-64 -53 6 -90 35 -101 75 -8 34 3 43 61 54 26 5 55 15 63 23 16 14 47 21 104
25 15 0 27 -1 27 -4z m684 -31 c20 -8 21 -24 1 -24 -9 0 -30 -7 -46 -16 -24
-12 -34 -13 -45 -3 -20 16 -17 28 9 39 26 11 60 12 81 4z m-1445 -76 c6 -35
18 -117 26 -183 12 -104 12 -123 0 -142 -13 -20 -52 -40 -60 -31 -2 2 -16 93
-31 202 -30 215 -30 216 27 216 25 0 28 -4 38 -62z m-129 -1 c0 -18 -2 -19
-10 -7 -13 20 -13 43 0 35 6 -3 10 -16 10 -28z m1681 23 c10 -6 19 -20 19 -30
0 -24 -4 -25 -35 -4 -14 9 -33 13 -45 9 -20 -6 -29 13 -13 28 10 10 52 8 74
-3z m-202 -31 c15 -18 21 -20 39 -10 12 6 22 16 22 21 0 13 37 13 45 0 8 -13
-48 -40 -82 -40 -37 0 -81 29 -62 41 19 12 18 12 38 -12z m-1978 -49 c17 -28
40 -53 53 -56 20 -5 22 -10 18 -72 -2 -37 -4 -73 -5 -81 -4 -25 -67 76 -67
107 0 17 -9 58 -19 91 -10 34 -17 61 -15 61 2 0 18 -23 35 -50z m2197 -7 c30
-41 8 -155 -44 -222 -28 -37 -34 -53 -34 -95 0 -29 -9 -70 -20 -94 -16 -35
-24 -43 -42 -40 -28 4 -27 37 2 78 41 58 18 120 -84 227 -36 39 -40 48 -41 95
l0 53 55 -3 c32 -2 72 3 95 12 46 18 95 13 113 -11z m-2048 2 c15 -18 5 -35
-22 -35 -14 0 -18 5 -14 16 3 9 6 20 6 25 0 14 16 11 30 -6z m1200 -35 c0 -23
-4 -30 -20 -30 -11 0 -29 -5 -39 -12 -15 -9 -23 -9 -35 1 -23 19 -20 31 7 31
13 0 32 9 43 19 28 29 44 26 44 -9z m957 -62 c4 -45 -12 -88 -36 -96 -11 -4
-12 7 -7 54 4 33 10 69 13 82 8 34 24 12 30 -40z m-2109 -64 c18 -53 71 -193
117 -312 47 -118 85 -221 85 -228 0 -13 -22 -24 -48 -24 -9 0 -30 11 -46 23
-23 19 -40 56 -86 188 -32 90 -69 193 -83 229 -14 37 -26 93 -28 130 -4 60 -2
65 21 77 14 7 27 13 30 13 3 0 20 -43 38 -96z m1142 47 c5 -11 10 -29 10 -40
0 -11 9 -25 20 -31 24 -13 28 -60 5 -60 -27 0 -62 45 -70 88 -10 58 12 85 35
43z m-796 -131 c4 -24 11 -49 17 -56 9 -12 -18 -74 -33 -74 -15 0 -20 46 -13
123 8 83 17 86 29 7z m1166 35 c7 -8 28 -15 47 -15 53 0 35 -23 -33 -41 -32
-9 -62 -15 -66 -13 -3 3 -3 18 2 34 15 53 28 62 50 35z m300 -37 c0 -11 -31
-10 -49 1 -12 8 -13 12 -1 25 12 15 14 15 31 0 11 -10 19 -21 19 -26z m196
-22 c-28 -67 -46 -91 -46 -59 0 32 18 75 42 100 12 13 23 22 24 20 2 -2 -7
-29 -20 -61z m-276 4 c0 -5 -14 -10 -31 -10 -17 0 -28 4 -24 10 3 6 17 10 31
10 13 0 24 -4 24 -10z m106 -34 c6 -16 -34 -116 -47 -116 -13 0 -11 5 12 46
13 23 18 46 15 61 -7 25 11 33 20 9z m-36 -21 c0 -2 -18 -14 -41 -26 -36 -18
-51 -20 -118 -14 -80 8 -116 20 -106 36 6 9 265 13 265 4z m-1313 -65 c7 -25
20 -97 28 -160 8 -63 23 -153 34 -199 21 -89 18 -111 -19 -131 -10 -5 -32 -10
-49 -10 -28 0 -31 4 -50 65 -11 35 -30 147 -42 248 -21 177 -21 184 -4 211 15
22 24 27 54 24 32 -3 36 -7 48 -48z m-505 -152 c36 -110 50 -139 86 -179 33
-37 42 -53 38 -74 -3 -14 6 -62 20 -107 27 -93 24 -114 -7 -44 -11 27 -35 64
-53 84 -29 32 -34 46 -39 107 -4 43 -24 122 -52 205 -48 144 -47 140 -41 140
3 0 24 -59 48 -132z m1907 10 c-12 -23 -21 -58 -21 -76 1 -33 1 -33 -36 -26
-52 9 -55 12 -33 40 11 14 25 40 31 58 7 23 19 35 43 42 17 5 33 9 35 8 2 -1
-7 -22 -19 -46z m-445 -67 c3 -5 27 -14 53 -20 25 -7 58 -20 72 -31 42 -29
104 -42 153 -30 56 12 135 13 143 0 13 -21 -17 -47 -113 -98 -91 -48 -139 -82
-115 -82 22 0 130 42 180 70 54 31 73 36 73 22 0 -5 -41 -67 -91 -138 -86
-123 -189 -312 -189 -349 0 -41 -36 1 -136 160 -162 255 -179 295 -154 360 10
25 10 25 42 10 18 -9 65 -51 105 -93 109 -117 104 -89 -15 78 -38 53 -57 150
-29 150 9 0 18 -4 21 -9z m483 -118 c2 -6 -3 -13 -12 -16 -10 -5 -15 0 -15 14
0 21 21 22 27 2z m-1650 -223 c66 -164 133 -376 133 -421 0 -24 -45 -45 -64
-30 -28 23 -137 288 -147 357 -5 37 -21 100 -35 141 -32 93 -22 149 25 140 8
-1 46 -83 88 -187z m1901 140 c272 -78 343 -100 371 -118 35 -21 81 -64 81
-75 0 -4 15 -23 34 -40 42 -40 51 -73 77 -277 28 -223 94 -509 122 -532 18
-14 22 -30 25 -91 5 -93 -18 -142 -111 -242 l-64 -70 -125 -3 c-113 -3 -137
-1 -274 32 -212 49 -403 76 -592 83 l-162 6 -9 31 c-5 20 -5 35 3 42 13 14
363 148 456 176 87 25 239 48 323 48 84 0 118 -15 179 -83 60 -66 63 -43 8 54
-52 92 -95 185 -132 284 -29 78 -30 83 -25 210 3 72 2 137 -2 144 -13 20 -18
4 -25 -79 -4 -41 -9 -83 -12 -92 -9 -30 -99 -41 -294 -33 -101 4 -180 4 -183
-1 -7 -13 14 -104 25 -104 4 0 8 8 8 18 0 39 17 42 227 42 202 0 203 0 207
-22 21 -109 30 -142 55 -195 l29 -60 -107 -13 c-148 -17 -274 -51 -404 -108
-62 -28 -158 -67 -215 -88 l-103 -37 -77 11 c-154 24 -224 7 -329 -78 -70 -57
-91 -60 -172 -30 -112 43 -201 101 -201 131 0 8 20 51 45 95 80 140 111 248
102 351 -7 70 -20 103 -42 103 -17 0 -18 -2 -5 -57 13 -54 -10 -191 -45 -270
-14 -31 -55 -101 -92 -155 -40 -60 -63 -102 -57 -108 5 -5 66 -38 135 -73 191
-97 219 -103 551 -99 334 3 728 -18 728 -39 0 -5 -19 -9 -42 -9 -102 0 -266
-37 -718 -164 -242 -67 -326 -80 -449 -71 -166 12 -288 63 -432 180 -138 114
-165 195 -114 345 28 83 72 252 140 540 38 164 52 206 87 265 51 87 83 122
119 130 16 4 97 36 181 72 84 36 182 73 218 83 36 10 74 22 85 26 19 8 19 7 2
-19 -9 -14 -17 -28 -17 -31 0 -2 28 -7 63 -11 l63 -7 46 -96 c28 -59 74 -130
115 -182 38 -47 87 -118 107 -157 21 -40 42 -73 46 -73 13 0 40 77 55 156 17
88 27 109 97 197 30 37 69 93 88 125 88 148 99 162 125 162 15 0 106 -23 203
-50z m-908 5 c0 -27 -4 -35 -18 -35 -11 0 -27 9 -37 20 -20 22 -20 22 10 38
35 20 45 14 45 -23z m-835 -125 c8 -12 -5 -60 -16 -60 -5 0 -9 16 -9 35 0 33
12 46 25 25z m157 -28 c8 -29 5 -38 -31 -80 -42 -51 -71 -102 -71 -127 0 -8
-4 -15 -9 -15 -25 0 -25 184 -1 230 10 19 38 29 79 26 19 -1 27 -9 33 -34z
m-144 -222 c7 -11 21 -20 32 -20 23 0 22 -6 -7 -110 l-16 -55 -19 60 c-28 87
-34 145 -17 145 8 0 20 -9 27 -20z m-124 -305 c-41 -54 -52 -46 -51 38 l0 74
39 -39 39 -39 -27 -34z m126 76 c0 -21 -13 -41 -26 -41 -17 0 -18 22 -2 38 14
14 28 16 28 3z m-43 -83 c-3 -13 -11 -50 -17 -83 -17 -81 -26 -87 -39 -25 -16
74 -14 86 17 109 35 27 46 26 39 -1z m2023 -298 c0 -5 -7 -10 -15 -10 -8 0
-15 5 -15 10 0 6 7 10 15 10 8 0 15 -4 15 -10z m-927 -293 c22 -26 37 -50 34
-53 -11 -11 -367 -18 -367 -7 0 17 64 72 102 87 54 23 78 20 115 -16 38 -37
50 -32 34 12 -10 30 -9 31 16 28 16 -2 41 -20 66 -51z m-1058 -232 c33 -27 84
-65 113 -84 36 -23 49 -37 41 -42 -7 -4 -24 -3 -38 2 -45 17 -169 129 -193
173 -13 25 0 16 77 -49z"/>
<path d="M2838 4041 c-17 -5 -58 -42 -58 -53 0 -5 10 -3 22 3 14 7 47 10 92 6
85 -6 108 -14 104 -36 -3 -13 -14 -15 -61 -13 -49 3 -64 0 -98 -22 -21 -15
-39 -30 -39 -34 0 -9 63 -32 108 -39 23 -4 48 3 87 23 34 17 59 24 65 18 5 -5
13 -36 18 -69 8 -56 9 -58 20 -34 6 15 14 43 17 63 7 33 4 39 -30 70 -31 28
-36 39 -31 60 5 20 1 28 -16 38 -23 12 -176 27 -200 19z m146 -151 c-31 -31
-116 -29 -122 3 -4 21 11 22 28 2 18 -22 57 -19 71 6 8 15 14 18 22 10 7 -7 8
-14 1 -21z"/>
<path d="M21 5403 c0 -35 2 -63 7 -63 4 0 6 21 4 48 -5 75 -10 82 -11 15z"/>
</g>
</svg>
